<svg xmlns="http://www.w3.org/2000/svg" xmlns:xlink="http://www.w3.org/1999/xlink" width="120" height="120" viewBox="0 0 120 120"><defs><clipPath id="b"><rect width="120" height="120"/></clipPath></defs><g id="a" clip-path="url(#b)"><g transform="translate(1.382 1.506)"><path d="M106.416,24.945a58.494,58.494,0,1,0,0,67.1Z" transform="translate(0 0)"/><g transform="translate(42.539 22.721)"><path d="M607,358.84c-.908-6.9-1.095-14.63-1.98-21.764-.536-4.242-.582-12.924-1.188-18.042-.07-.5-.745-1.468-.792-1.812-.582-4.469-1.491-10.506-2.376-15.007-1.048-5.3-2.306-11.453-5.124-10.847-1.677,3.4-1.025,8.791-.4,13.441a31.662,31.662,0,0,1-1.188,7.81c.885,6.318-.3,12.521-.792,20.2-1.071-2.1-1.607-5.46-1.584-10.331-2.981-7.386-3.284-21.556-9.06-21.842-1.258,2.205-2.446,4.589-1.98,10.773a81.854,81.854,0,0,0-1.188,13.562c-1.234,4.532-.862,12.707-2.376,16.574-.606,3.825.186,5.939-.4,8.666-2.795-.189-2.1-9.313-3.936-11.973v-4.775c-2.119-9.286-3.4-20.68-6.312-27.935-1.328-.092-2.259-1.234-3.936-.467-1.234,1.97-1.887,5.241-2.376,8.912-1.467,2.651-2.352,6.7-3.936,9.105-.722,4.1-1.491,8.08-2.772,10.871-2.492-.017-2.958-5.223-4.728-7.077-.35.079-2.126-2.235-3.053.044-.508,1.248.78,6.9,3.386,11.941,2.049.282,1.576,6.388,3.579,6.675.629.085,1.211-1.711,2.376-1.249,1.3-5.542,2.259-11.343,3.936-16.768.256-.824.955-1.236,1.188-2.057.256-.94.116-2.087.4-2.914,1.025-2.992,2.469-6.385,3.936-8.15,1.584.549,2.4,6.9,3.144,11.093.21,1.139.559,2.376.792,3.721.7,4.106,1.467,8.995,1.98,13.17a44.969,44.969,0,0,0,1.584,8.421c.815,2.927,1.537,8.543,3.144,9.183,1.095.447,2-.574,3.144-1.345,2.469-7.386,1.444-22.7,3.936-30.16,0-7.057.373-13.229,2.375-15.619,2.026-.694,1.56,4.977,2.376,7.368,3.284,8.839,2.981,26.857,4.728,39.613,1.677.165,1.817,4.27,3.936,3.355,1.351-3.218.349-7.869.4-11.531.047-2.707.419-5.106.4-7.712-.023-3.374-.466-6.231-.4-9.523.117-4.929,1.281-9.778,1.584-14.566.279-4.646-.512-8.321.4-12.509,2.4,4.757,2.1,16.37,3.959,22.5-.629,12.072,2.445,19.424,2.376,32.242-.011,2.448-.108,4.712-.071,6.947q1.412-1.452,2.725-3C606.669,364.3,607.03,361.7,607,358.84Z" transform="translate(-545.428 -291.326)" fill="#fff"/><path d="M1347.5,372.264V303.077l-.129-.181c.008.34.015.706.015,1.123a4.481,4.481,0,0,0-.4,1.959c.443,2.88-.978,9.531-1.188,14.517-.093,1.921.349,3.474.4,5.68.14,7.389-1.118,16.721-1.188,24.09-.08,8.264.666,16.373.536,24.628Q1346.552,373.606,1347.5,372.264Z" transform="translate(-1282.639 -301.994)" fill="#fff"/></g></g></g></svg>