<?xml version="1.0" encoding="utf-8"?>
<!-- Generator: Adobe Illustrator 27.0.0, SVG Export Plug-In . SVG Version: 6.00 Build 0)  -->
<svg version="1.1" id="Layer_1" xmlns="http://www.w3.org/2000/svg" xmlns:xlink="http://www.w3.org/1999/xlink" x="0px" y="0px"
	 viewBox="0 0 24 24" style="enable-background:new 0 0 24 24;" xml:space="preserve">
<style type="text/css">
	.st0{fill:#61DAFB;}
</style>
<path class="st0" d="M0.1,23.4c0-2,0-3.9,0-5.7c0-2.7,0-5.4,0-8.2c0-5,3.6-8.7,8.6-8.8c4.9-0.1,9.8,0,14.7,0c0.1,0,0.3,0,0.4,0
	c0,0.1,0.1,0.1,0.1,0.2c0,3.5,0.1,7.1-0.2,10.6c-0.5,5.8-5.6,11-11.4,11.7c-2.3,0.3-4.6,0.2-6.9,0.2C3.7,23.4,1.9,23.4,0.1,23.4z
	 M7.3,17.1c0,0.9,0.2,1.1,0.9,0.8c0.8-0.4,1.7-0.8,2.5-1.3c0.6-0.4,1-0.3,1.6,0c0.8,0.5,1.6,0.9,2.4,1.3c0.2,0.1,0.6,0.2,0.8,0
	c0.2-0.1,0.2-0.5,0.2-0.8c-0.1-1-0.4-2-0.5-2.9c0-0.3,0.1-0.8,0.3-1c0.7-0.8,1.5-1.4,2.2-2.2c0.5-0.5,0.4-0.9-0.4-1.1
	c-0.8-0.1-1.7-0.3-2.5-0.4c-0.8-0.1-1.4-0.3-1.6-1.1c-0.3-0.7-0.7-1.4-1-2.1C12,6,11.7,5.7,11.5,5.5c-0.2,0.2-0.5,0.4-0.7,0.7
	C10.3,7.1,10,7.9,9.5,8.8C9.3,9,9,9.3,8.7,9.3c-1,0.2-2.1,0.3-3.1,0.5C5.4,9.9,5,10.1,5,10.2c0,0.2,0.1,0.6,0.3,0.7
	c0.6,0.7,1.2,1.3,1.9,1.9c0.6,0.5,0.6,1,0.5,1.6C7.5,15.4,7.4,16.3,7.3,17.1z"/>
</svg>
